<?xml version="1.0" ?>
<!-- Uploaded to: SVG Repo, www.svgrepo.com, Generator: SVG Repo Mixer Tools -->
<svg width="800px" height="800px" viewBox="0 0 64 64" version="1.1" xml:space="preserve" xmlns="http://www.w3.org/2000/svg" xmlns:xlink="http://www.w3.org/1999/xlink">
<style type="text/css">
	.st0{fill:none;stroke:#EDEDED;stroke-width:0.25;stroke-miterlimit:10;}
	.st1{fill:none;stroke:#BDBDBD;stroke-width:0.25;stroke-miterlimit:10;}
	.st2{fill:none;stroke:#000000;stroke-width:2;stroke-miterlimit:10;}
	.st3{fill:#35C6F4;}
	.st4{fill:#EA386E;}
	.st5{fill:#7065AD;}
	.st6{fill:#FDBE57;}
	.st7{fill:#7BC89C;}
	.st8{fill:#FDD304;}
	.st9{fill:#27255F;}
	.st10{fill:#00AEEF;}
</style>
<g id="Layer_1"/>
<g id="Layer_2">
<g>
<path d="M61.9,31.5C55.9,21,44.8,14,32,14C19.2,14,8.1,21,2.1,31.5L1.8,32l0.3,0.5C8.1,43,19.2,50,32,50c12.8,0,23.9-7,29.9-17.5    l0.3-0.5L61.9,31.5z M4.2,32c4.4-7.4,11.5-12.9,19.9-15c-5.5,2.8-9.2,8.5-9.2,15.1c0,6.3,3.5,11.8,8.6,14.8    C15.3,44.6,8.4,39.2,4.2,32z M31.9,47.1c-4.1,0-7.9-1.7-10.6-4.4c-2.7-2.7-4.4-6.5-4.4-10.6c0-4.1,1.7-7.9,4.4-10.6    c2.7-2.7,6.5-4.4,10.6-4.4c4.1,0,7.9,1.7,10.6,4.4c2.7,2.7,4.4,6.5,4.4,10.6c0,4.1-1.7,7.9-4.4,10.6    C39.8,45.4,36.1,47.1,31.9,47.1z M40.2,46.9c5.2-2.9,8.7-8.5,8.7-14.8c0-6.7-3.8-12.4-9.4-15.2C48.1,19,55.4,24.5,59.8,32    C55.5,39.3,48.5,44.7,40.2,46.9z"/>
<path d="M31.9,19.1c-7.2,0-13,5.8-13,13c0,7.2,5.8,13,13,13c7.2,0,13-5.8,13-13C44.9,24.9,39.1,19.1,31.9,19.1z M39.7,39.9    c-2,2-4.7,3.2-7.8,3.2c-3,0-5.8-1.2-7.8-3.2c-2-2-3.2-4.7-3.2-7.8c0-3,1.2-5.8,3.2-7.8c2-2,4.7-3.2,7.8-3.2c3,0,5.8,1.2,7.8,3.2    c2,2,3.2,4.7,3.2,7.8C42.9,35.1,41.7,37.9,39.7,39.9z"/>
<path d="M31.9,25.1c-3.9,0-7,3.1-7,7c0,3.9,3.1,7,7,7c3.9,0,7-3.1,7-7C38.9,28.2,35.8,25.1,31.9,25.1z M35.4,35.6    c-0.9,0.9-2.2,1.5-3.5,1.5c-1.4,0-2.6-0.6-3.5-1.5c-0.9-0.9-1.5-2.2-1.5-3.5c0-1.4,0.6-2.6,1.5-3.5c0.9-0.9,2.2-1.5,3.5-1.5    c1.4,0,2.6,0.6,3.5,1.5c0.9,0.9,1.5,2.2,1.5,3.5C36.9,33.5,36.3,34.7,35.4,35.6z"/>
</g>
</g>
</svg>